<svg width="50" height="50" viewBox="0 0 50 50" fill="none" xmlns="http://www.w3.org/2000/svg">
<circle cx="25" cy="25" r="25" fill="#292929"/>
<path d="M22 26V29H28V26H35V33C35 33.2652 34.8946 33.5196 34.7071 33.7071C34.5196 33.8946 34.2652 34 34 34H16C15.7348 34 15.4804 33.8946 15.2929 33.7071C15.1054 33.5196 15 33.2652 15 33V26H22ZM24 24H26V27H24V24ZM20 18V15C20 14.7348 20.1054 14.4804 20.2929 14.2929C20.4804 14.1054 20.7348 14 21 14H29C29.2652 14 29.5196 14.1054 29.7071 14.2929C29.8946 14.4804 30 14.7348 30 15V18H34C34.2652 18 34.5196 18.1054 34.7071 18.2929C34.8946 18.4804 35 18.7348 35 19V24H28V22H22V24H15V19C15 18.7348 15.1054 18.4804 15.2929 18.2929C15.4804 18.1054 15.7348 18 16 18H20ZM22 16V18H28V16H22Z" fill="white"/>
</svg>
