<svg width="18" height="18" viewBox="0 0 18 18" fill="none" xmlns="http://www.w3.org/2000/svg">
<path d="M9.00008 0.666748C13.6001 0.666748 17.3334 4.40008 17.3334 9.00008C17.3334 13.6001 13.6001 17.3334 9.00008 17.3334C4.40008 17.3334 0.666748 13.6001 0.666748 9.00008C0.666748 4.40008 4.40008 0.666748 9.00008 0.666748ZM9.00008 15.6667C12.6834 15.6667 15.6667 12.6834 15.6667 9.00008C15.6667 5.31675 12.6834 2.33341 9.00008 2.33341C5.31675 2.33341 2.33341 5.31675 2.33341 9.00008C2.33341 12.6834 5.31675 15.6667 9.00008 15.6667ZM9.83342 9.00008H12.3334L9.00008 12.3334L5.66675 9.00008H8.16675V5.66675H9.83342V9.00008Z" fill="#02FDA5"/>
</svg>
